# xmcd CD database file
#
# Track frame offsets:
#	150
#	22902
#	47220
#	64791
#	73687
#	95734
#	121854
#	136913
#	159850
#	176240
#	199614
#	230494
#	252899
#	268933
#	277169
#	294551
#
# Disc length: 4234 seconds
#
# Revision: 0
# Processed by: cddbd v1.5.2PL0 Copyright (c) Steve Scherf et al.
# Submitted via: CDex 1.70beta2
#
DISCID=f0108810
DTITLE=Klazzbrothers and Cubapercussion - Classic Meets Cuba
DYEAR=1900
DGENRE=Salsa
TTITLE0=Mambozart
TTITLE1=Kubanischer Tanz
TTITLE2=Danzon De La Trucha
TTITLE3=Preludio
TTITLE4=Afrolise
TTITLE5=Air
TTITLE6=Pathetique I
TTITLE7=Pathetique II
TTITLE8=Pathetique III
TTITLE9=Salsa No. V
TTITLE10=Czardas
TTITLE11=Etude
TTITLE12=Carmen Cubana
TTITLE13=Hummelflug
TTITLE14=Guten Abend
TTITLE15=Hymne
EXTD=
EXTT0=
EXTT1=
EXTT2=
EXTT3=
EXTT4=
EXTT5=
EXTT6=
EXTT7=
EXTT8=
EXTT9=
EXTT10=
EXTT11=
EXTT12=
EXTT13=
EXTT14=
EXTT15=
PLAYORDER=
